<?xml version="1.0" standalone="no"?><!DOCTYPE svg PUBLIC "-//W3C//DTD SVG 1.1//EN" "http://www.w3.org/Graphics/SVG/1.1/DTD/svg11.dtd"><svg t="1702285422858" class="icon" viewBox="0 0 1024 1024" version="1.1" xmlns="http://www.w3.org/2000/svg" p-id="9261" xmlns:xlink="http://www.w3.org/1999/xlink" width="200" height="200"><path d="M810.666667 170.666667h-178.346667C614.4 121.173333 567.466667 85.333333 512 85.333333c-55.466667 0-102.4 35.84-120.32 85.333334H213.333333c-46.933333 0-85.333333 38.4-85.333333 85.333333v597.333333c0 46.933333 38.4 85.333333 85.333333 85.333334h597.333334c46.933333 0 85.333333-38.4 85.333333-85.333334V256c0-46.933333-38.4-85.333333-85.333333-85.333333z m-298.666667 0c23.466667 0 42.666667 19.2 42.666667 42.666666s-19.2 42.666667-42.666667 42.666667-42.666667-19.2-42.666667-42.666667 19.2-42.666667 42.666667-42.666666z m85.333333 597.333333H298.666667v-85.333333h298.666666v85.333333z m128-170.666667H298.666667v-85.333333h426.666666v85.333333z m0-170.666666H298.666667V341.333333h426.666666v85.333334z" p-id="9262"></path></svg>